<svg width="29" height="29" viewBox="0 0 29 29" fill="none" xmlns="http://www.w3.org/2000/svg">
<path fill-rule="evenodd" clip-rule="evenodd" d="M14.5 29C22.5081 29 29 22.5081 29 14.5C29 6.49187 22.5081 0 14.5 0C6.49187 0 0 6.49187 0 14.5C0 22.5081 6.49187 29 14.5 29ZM14.4408 27.3429C21.5664 27.3429 27.3429 21.5664 27.3429 14.4408C27.3429 7.31522 21.5664 1.53878 14.4408 1.53878C7.31522 1.53878 1.53878 7.31522 1.53878 14.4408C1.53878 21.5664 7.31522 27.3429 14.4408 27.3429Z" fill="black"/>
<path d="M19.9479 10.0033L20.7055 10.4407C20.8971 10.5514 21.1328 10.3957 21.1063 10.1761L20.7912 7.5604C20.7698 7.38268 20.5837 7.27527 20.4191 7.34559L17.9963 8.3805C17.7928 8.46742 17.7759 8.74934 17.9675 8.85998L18.7252 9.29739L16.3181 13.4666C16.2439 13.595 16.2879 13.7592 16.4164 13.8334L17.174 14.2708C17.3024 14.3449 17.4666 14.3009 17.5408 14.1725L19.9479 10.0033Z" fill="black"/>
<path d="M9.12134 18.8783L8.36373 18.4409C8.1721 18.3303 7.93641 18.4859 7.96288 18.7056L8.27801 21.3212C8.29942 21.499 8.48546 21.6064 8.65008 21.5361L11.0729 20.5011C11.2764 20.4142 11.2933 20.1323 11.1017 20.0217L10.344 19.5843L12.7511 15.4151C12.8253 15.2866 12.7813 15.1224 12.6528 15.0483L11.8952 14.6109C11.7668 14.5367 11.6026 14.5807 11.5284 14.7091L9.12134 18.8783Z" fill="black"/>
<path d="M18.1832 9.91068C18.0749 9.77311 17.9577 9.64387 17.8317 9.52299C16.9841 8.69814 15.8443 8.28572 14.4124 8.28572C12.9691 8.28572 11.8236 8.69814 10.976 9.52299C10.1283 10.3362 9.68155 11.527 9.63573 13.0954C9.62428 13.4323 9.61855 13.9202 9.61855 14.5592C9.61855 15.1982 9.62428 15.6919 9.63573 16.0404C9.64867 16.4933 9.69223 16.9141 9.76641 17.303L11.3368 14.5831L11.3368 14.5592C11.3368 13.9667 11.3425 13.502 11.354 13.1651C11.3998 12.0149 11.6919 11.1611 12.2303 10.6034C12.7801 10.0458 13.5075 9.76695 14.4124 9.76695C15.3059 9.76695 16.0218 10.0458 16.5602 10.6034C16.8296 10.8766 17.0385 11.2209 17.1869 11.6363L18.1832 9.91068Z" fill="black"/>
<path d="M17.4881 14.5734L19.0421 11.8817C19.116 12.2574 19.1593 12.662 19.1719 13.0954C19.1949 13.7692 19.2063 14.2571 19.2063 14.5592C19.2063 14.8496 19.1949 15.3434 19.1719 16.0404C19.1261 17.6436 18.6908 18.8461 17.8661 19.6477C17.0528 20.4377 15.9016 20.8327 14.4124 20.8327C12.9118 20.8327 11.7492 20.4377 10.9244 19.6477C10.8264 19.551 10.7339 19.4486 10.647 19.3403L11.6567 17.5915C11.7988 17.9583 11.99 18.2661 12.2303 18.515C12.7801 19.0726 13.5075 19.3514 14.4124 19.3514C15.3174 19.3514 16.039 19.0726 16.5774 18.515C17.1158 17.9573 17.4079 17.1034 17.4537 15.9533C17.4762 15.2702 17.4876 14.8102 17.4881 14.5734Z" fill="black"/>
</svg>
